%TF.GenerationSoftware,KiCad,Pcbnew,(5.1.9)-1*%
%TF.CreationDate,2021-05-10T22:24:52+08:00*%
%TF.ProjectId,MultiMifare,4d756c74-694d-4696-9661-72652e6b6963,rev?*%
%TF.SameCoordinates,Original*%
%TF.FileFunction,Copper,L1,Top*%
%TF.FilePolarity,Positive*%
%FSLAX46Y46*%
G04 Gerber Fmt 4.6, Leading zero omitted, Abs format (unit mm)*
G04 Created by KiCad (PCBNEW (5.1.9)-1) date 2021-05-10 22:24:52*
%MOMM*%
%LPD*%
G01*
G04 APERTURE LIST*
%TA.AperFunction,EtchedComponent*%
%ADD10C,0.010000*%
%TD*%
%TA.AperFunction,SMDPad,CuDef*%
%ADD11R,0.800000X0.800000*%
%TD*%
%TA.AperFunction,SMDPad,CuDef*%
%ADD12R,1.700000X1.000000*%
%TD*%
%TA.AperFunction,ViaPad*%
%ADD13C,0.800000*%
%TD*%
%TA.AperFunction,Conductor*%
%ADD14C,0.762000*%
%TD*%
%ADD15C,0.350000*%
G04 APERTURE END LIST*
D10*
%TO.C,AE1*%
G36*
X152102645Y-57694227D02*
G01*
X177103125Y-57696875D01*
X177105773Y-82697355D01*
X177108421Y-107697834D01*
X127864166Y-107697834D01*
X127864166Y-58453579D01*
X152102645Y-58456227D01*
X176341125Y-58458875D01*
X176343773Y-82697355D01*
X176346421Y-106935834D01*
X128626166Y-106935834D01*
X128626166Y-59215579D01*
X152102645Y-59218227D01*
X175579125Y-59220875D01*
X175581773Y-82697355D01*
X175584421Y-106173834D01*
X129388166Y-106173834D01*
X129388166Y-59977579D01*
X152102645Y-59980227D01*
X174817125Y-59982875D01*
X174819773Y-82697355D01*
X174822421Y-105411834D01*
X132200000Y-105390500D01*
X132200000Y-105009500D01*
X174430833Y-105030834D01*
X174430833Y-60369167D01*
X129758583Y-60369167D01*
X129758583Y-105782250D01*
X175192833Y-105782250D01*
X175192833Y-59607167D01*
X129007166Y-59607167D01*
X129007166Y-106544250D01*
X175954833Y-106544250D01*
X175954833Y-58845167D01*
X128245166Y-58845167D01*
X128245166Y-107306250D01*
X176716833Y-107306250D01*
X176716833Y-58083167D01*
X127483166Y-58083167D01*
X127490500Y-109100000D01*
X127109500Y-109100000D01*
X127102166Y-57691579D01*
X152102645Y-57694227D01*
G37*
X152102645Y-57694227D02*
X177103125Y-57696875D01*
X177105773Y-82697355D01*
X177108421Y-107697834D01*
X127864166Y-107697834D01*
X127864166Y-58453579D01*
X152102645Y-58456227D01*
X176341125Y-58458875D01*
X176343773Y-82697355D01*
X176346421Y-106935834D01*
X128626166Y-106935834D01*
X128626166Y-59215579D01*
X152102645Y-59218227D01*
X175579125Y-59220875D01*
X175581773Y-82697355D01*
X175584421Y-106173834D01*
X129388166Y-106173834D01*
X129388166Y-59977579D01*
X152102645Y-59980227D01*
X174817125Y-59982875D01*
X174819773Y-82697355D01*
X174822421Y-105411834D01*
X132200000Y-105390500D01*
X132200000Y-105009500D01*
X174430833Y-105030834D01*
X174430833Y-60369167D01*
X129758583Y-60369167D01*
X129758583Y-105782250D01*
X175192833Y-105782250D01*
X175192833Y-59607167D01*
X129007166Y-59607167D01*
X129007166Y-106544250D01*
X175954833Y-106544250D01*
X175954833Y-58845167D01*
X128245166Y-58845167D01*
X128245166Y-107306250D01*
X176716833Y-107306250D01*
X176716833Y-58083167D01*
X127483166Y-58083167D01*
X127490500Y-109100000D01*
X127109500Y-109100000D01*
X127102166Y-57691579D01*
X152102645Y-57694227D01*
%TD*%
D11*
%TO.P,AE1,1*%
%TO.N,Net-(AE1-Pad1)*%
X127290000Y-109392000D03*
%TO.P,AE1,2*%
%TO.N,Net-(AE1-Pad2)*%
X131994000Y-105200000D03*
%TD*%
%TO.P,U2,2*%
%TO.N,Net-(SW2-Pad1)*%
%TA.AperFunction,SMDPad,CuDef*%
G36*
G01*
X154800000Y-122800000D02*
X159200000Y-122800000D01*
G75*
G02*
X159500000Y-123100000I0J-300000D01*
G01*
X159500000Y-123700000D01*
G75*
G02*
X159200000Y-124000000I-300000J0D01*
G01*
X154800000Y-124000000D01*
G75*
G02*
X154500000Y-123700000I0J300000D01*
G01*
X154500000Y-123100000D01*
G75*
G02*
X154800000Y-122800000I300000J0D01*
G01*
G37*
%TD.AperFunction*%
%TO.P,U2,1*%
%TO.N,Net-(AE1-Pad2)*%
%TA.AperFunction,SMDPad,CuDef*%
G36*
G01*
X154800000Y-116000000D02*
X159200000Y-116000000D01*
G75*
G02*
X159500000Y-116300000I0J-300000D01*
G01*
X159500000Y-116900000D01*
G75*
G02*
X159200000Y-117200000I-300000J0D01*
G01*
X154800000Y-117200000D01*
G75*
G02*
X154500000Y-116900000I0J300000D01*
G01*
X154500000Y-116300000D01*
G75*
G02*
X154800000Y-116000000I300000J0D01*
G01*
G37*
%TD.AperFunction*%
%TD*%
%TO.P,U1,2*%
%TO.N,Net-(SW1-Pad1)*%
%TA.AperFunction,SMDPad,CuDef*%
G36*
G01*
X168800000Y-122800000D02*
X173200000Y-122800000D01*
G75*
G02*
X173500000Y-123100000I0J-300000D01*
G01*
X173500000Y-123700000D01*
G75*
G02*
X173200000Y-124000000I-300000J0D01*
G01*
X168800000Y-124000000D01*
G75*
G02*
X168500000Y-123700000I0J300000D01*
G01*
X168500000Y-123100000D01*
G75*
G02*
X168800000Y-122800000I300000J0D01*
G01*
G37*
%TD.AperFunction*%
%TO.P,U1,1*%
%TO.N,Net-(AE1-Pad2)*%
%TA.AperFunction,SMDPad,CuDef*%
G36*
G01*
X168800000Y-116000000D02*
X173200000Y-116000000D01*
G75*
G02*
X173500000Y-116300000I0J-300000D01*
G01*
X173500000Y-116900000D01*
G75*
G02*
X173200000Y-117200000I-300000J0D01*
G01*
X168800000Y-117200000D01*
G75*
G02*
X168500000Y-116900000I0J300000D01*
G01*
X168500000Y-116300000D01*
G75*
G02*
X168800000Y-116000000I300000J0D01*
G01*
G37*
%TD.AperFunction*%
%TD*%
D12*
%TO.P,SW2,2*%
%TO.N,Net-(AE1-Pad1)*%
X160150000Y-136400000D03*
X153850000Y-136400000D03*
%TO.P,SW2,1*%
%TO.N,Net-(SW2-Pad1)*%
X160150000Y-132600000D03*
X153850000Y-132600000D03*
%TD*%
%TO.P,SW1,2*%
%TO.N,Net-(AE1-Pad1)*%
X174150000Y-136400000D03*
X167850000Y-136400000D03*
%TO.P,SW1,1*%
%TO.N,Net-(SW1-Pad1)*%
X174150000Y-132600000D03*
X167850000Y-132600000D03*
%TD*%
D13*
%TO.N,Net-(AE1-Pad2)*%
X145900000Y-116600000D03*
X131994000Y-105200000D03*
%TD*%
D14*
%TO.N,Net-(SW1-Pad1)*%
X167850000Y-126550000D02*
X171000000Y-123400000D01*
X167850000Y-132600000D02*
X167850000Y-126550000D01*
X174150000Y-132600000D02*
X167850000Y-132600000D01*
%TO.N,Net-(SW2-Pad1)*%
X160150000Y-132600000D02*
X153850000Y-132600000D01*
X153850000Y-126550000D02*
X157000000Y-123400000D01*
X153850000Y-132600000D02*
X153850000Y-126550000D01*
%TO.N,Net-(AE1-Pad1)*%
X174150000Y-136400000D02*
X167850000Y-136400000D01*
X167850000Y-136400000D02*
X160150000Y-136400000D01*
X153850000Y-136400000D02*
X152238000Y-136400000D01*
X160150000Y-136400000D02*
X153850000Y-136400000D01*
X152238000Y-136400000D02*
X127290000Y-111452000D01*
X127290000Y-111452000D02*
X127290000Y-109392000D01*
%TO.N,Net-(AE1-Pad2)*%
X171000000Y-116600000D02*
X157000000Y-116600000D01*
X157000000Y-116600000D02*
X145900000Y-116600000D01*
%TD*%
D15*
X145900000Y-116600000D03*
X131994000Y-105200000D03*
M02*
