%TF.GenerationSoftware,KiCad,Pcbnew,(5.1.9)-1*%
%TF.CreationDate,2021-05-18T18:47:27+08:00*%
%TF.ProjectId,MultiMifare,4d756c74-694d-4696-9661-72652e6b6963,rev?*%
%TF.SameCoordinates,Original*%
%TF.FileFunction,Legend,Top*%
%TF.FilePolarity,Positive*%
%FSLAX46Y46*%
G04 Gerber Fmt 4.6, Leading zero omitted, Abs format (unit mm)*
G04 Created by KiCad (PCBNEW (5.1.9)-1) date 2021-05-18 18:47:27*
%MOMM*%
%LPD*%
G01*
G04 APERTURE LIST*
%ADD10C,0.120000*%
%ADD11C,0.150000*%
G04 APERTURE END LIST*
D10*
%TO.C,SW2*%
X155750000Y-131750000D02*
X158250000Y-131750000D01*
X154250000Y-133500000D02*
X154250000Y-135500000D01*
X155750000Y-137250000D02*
X158250000Y-137250000D01*
X159750000Y-133500000D02*
X159750000Y-135500000D01*
X155300000Y-132200000D02*
X155750000Y-131750000D01*
X158700000Y-132200000D02*
X158250000Y-131750000D01*
X158700000Y-136800000D02*
X158250000Y-137250000D01*
X155300000Y-136800000D02*
X155750000Y-137250000D01*
%TO.C,SW1*%
X169750000Y-131750000D02*
X172250000Y-131750000D01*
X168250000Y-133500000D02*
X168250000Y-135500000D01*
X169750000Y-137250000D02*
X172250000Y-137250000D01*
X173750000Y-133500000D02*
X173750000Y-135500000D01*
X169300000Y-132200000D02*
X169750000Y-131750000D01*
X172700000Y-132200000D02*
X172250000Y-131750000D01*
X172700000Y-136800000D02*
X172250000Y-137250000D01*
X169300000Y-136800000D02*
X169750000Y-137250000D01*
%TO.C,U2*%
D11*
X152652380Y-123811904D02*
X153461904Y-123811904D01*
X153557142Y-123764285D01*
X153604761Y-123716666D01*
X153652380Y-123621428D01*
X153652380Y-123430952D01*
X153604761Y-123335714D01*
X153557142Y-123288095D01*
X153461904Y-123240476D01*
X152652380Y-123240476D01*
X152747619Y-122811904D02*
X152700000Y-122764285D01*
X152652380Y-122669047D01*
X152652380Y-122430952D01*
X152700000Y-122335714D01*
X152747619Y-122288095D01*
X152842857Y-122240476D01*
X152938095Y-122240476D01*
X153080952Y-122288095D01*
X153652380Y-122859523D01*
X153652380Y-122240476D01*
%TO.C,U1*%
X166652380Y-123811904D02*
X167461904Y-123811904D01*
X167557142Y-123764285D01*
X167604761Y-123716666D01*
X167652380Y-123621428D01*
X167652380Y-123430952D01*
X167604761Y-123335714D01*
X167557142Y-123288095D01*
X167461904Y-123240476D01*
X166652380Y-123240476D01*
X167652380Y-122240476D02*
X167652380Y-122811904D01*
X167652380Y-122526190D02*
X166652380Y-122526190D01*
X166795238Y-122621428D01*
X166890476Y-122716666D01*
X166938095Y-122811904D01*
%TO.C,SW2*%
X155666666Y-131154761D02*
X155809523Y-131202380D01*
X156047619Y-131202380D01*
X156142857Y-131154761D01*
X156190476Y-131107142D01*
X156238095Y-131011904D01*
X156238095Y-130916666D01*
X156190476Y-130821428D01*
X156142857Y-130773809D01*
X156047619Y-130726190D01*
X155857142Y-130678571D01*
X155761904Y-130630952D01*
X155714285Y-130583333D01*
X155666666Y-130488095D01*
X155666666Y-130392857D01*
X155714285Y-130297619D01*
X155761904Y-130250000D01*
X155857142Y-130202380D01*
X156095238Y-130202380D01*
X156238095Y-130250000D01*
X156571428Y-130202380D02*
X156809523Y-131202380D01*
X157000000Y-130488095D01*
X157190476Y-131202380D01*
X157428571Y-130202380D01*
X157761904Y-130297619D02*
X157809523Y-130250000D01*
X157904761Y-130202380D01*
X158142857Y-130202380D01*
X158238095Y-130250000D01*
X158285714Y-130297619D01*
X158333333Y-130392857D01*
X158333333Y-130488095D01*
X158285714Y-130630952D01*
X157714285Y-131202380D01*
X158333333Y-131202380D01*
%TO.C,SW1*%
X169666666Y-131154761D02*
X169809523Y-131202380D01*
X170047619Y-131202380D01*
X170142857Y-131154761D01*
X170190476Y-131107142D01*
X170238095Y-131011904D01*
X170238095Y-130916666D01*
X170190476Y-130821428D01*
X170142857Y-130773809D01*
X170047619Y-130726190D01*
X169857142Y-130678571D01*
X169761904Y-130630952D01*
X169714285Y-130583333D01*
X169666666Y-130488095D01*
X169666666Y-130392857D01*
X169714285Y-130297619D01*
X169761904Y-130250000D01*
X169857142Y-130202380D01*
X170095238Y-130202380D01*
X170238095Y-130250000D01*
X170571428Y-130202380D02*
X170809523Y-131202380D01*
X171000000Y-130488095D01*
X171190476Y-131202380D01*
X171428571Y-130202380D01*
X172333333Y-131202380D02*
X171761904Y-131202380D01*
X172047619Y-131202380D02*
X172047619Y-130202380D01*
X171952380Y-130345238D01*
X171857142Y-130440476D01*
X171761904Y-130488095D01*
%TD*%
M02*
