%TF.GenerationSoftware,KiCad,Pcbnew,(5.1.9)-1*%
%TF.CreationDate,2021-05-10T22:24:52+08:00*%
%TF.ProjectId,MultiMifare,4d756c74-694d-4696-9661-72652e6b6963,rev?*%
%TF.SameCoordinates,Original*%
%TF.FileFunction,Soldermask,Top*%
%TF.FilePolarity,Negative*%
%FSLAX46Y46*%
G04 Gerber Fmt 4.6, Leading zero omitted, Abs format (unit mm)*
G04 Created by KiCad (PCBNEW (5.1.9)-1) date 2021-05-10 22:24:52*
%MOMM*%
%LPD*%
G01*
G04 APERTURE LIST*
%ADD10R,0.800000X0.800000*%
%ADD11R,1.700000X1.000000*%
G04 APERTURE END LIST*
D10*
%TO.C,AE1*%
X127290000Y-109392000D03*
X131994000Y-105200000D03*
%TD*%
%TO.C,U2*%
G36*
G01*
X154800000Y-122800000D02*
X159200000Y-122800000D01*
G75*
G02*
X159500000Y-123100000I0J-300000D01*
G01*
X159500000Y-123700000D01*
G75*
G02*
X159200000Y-124000000I-300000J0D01*
G01*
X154800000Y-124000000D01*
G75*
G02*
X154500000Y-123700000I0J300000D01*
G01*
X154500000Y-123100000D01*
G75*
G02*
X154800000Y-122800000I300000J0D01*
G01*
G37*
G36*
G01*
X154800000Y-116000000D02*
X159200000Y-116000000D01*
G75*
G02*
X159500000Y-116300000I0J-300000D01*
G01*
X159500000Y-116900000D01*
G75*
G02*
X159200000Y-117200000I-300000J0D01*
G01*
X154800000Y-117200000D01*
G75*
G02*
X154500000Y-116900000I0J300000D01*
G01*
X154500000Y-116300000D01*
G75*
G02*
X154800000Y-116000000I300000J0D01*
G01*
G37*
%TD*%
%TO.C,U1*%
G36*
G01*
X168800000Y-122800000D02*
X173200000Y-122800000D01*
G75*
G02*
X173500000Y-123100000I0J-300000D01*
G01*
X173500000Y-123700000D01*
G75*
G02*
X173200000Y-124000000I-300000J0D01*
G01*
X168800000Y-124000000D01*
G75*
G02*
X168500000Y-123700000I0J300000D01*
G01*
X168500000Y-123100000D01*
G75*
G02*
X168800000Y-122800000I300000J0D01*
G01*
G37*
G36*
G01*
X168800000Y-116000000D02*
X173200000Y-116000000D01*
G75*
G02*
X173500000Y-116300000I0J-300000D01*
G01*
X173500000Y-116900000D01*
G75*
G02*
X173200000Y-117200000I-300000J0D01*
G01*
X168800000Y-117200000D01*
G75*
G02*
X168500000Y-116900000I0J300000D01*
G01*
X168500000Y-116300000D01*
G75*
G02*
X168800000Y-116000000I300000J0D01*
G01*
G37*
%TD*%
D11*
%TO.C,SW2*%
X160150000Y-136400000D03*
X153850000Y-136400000D03*
X160150000Y-132600000D03*
X153850000Y-132600000D03*
%TD*%
%TO.C,SW1*%
X174150000Y-136400000D03*
X167850000Y-136400000D03*
X174150000Y-132600000D03*
X167850000Y-132600000D03*
%TD*%
M02*
